<?xml version="1.0" encoding="UTF-8" standalone="no"?>
<!-- Created with Inkscape (http://www.inkscape.org/) -->

<svg
   xmlns:dc="http://purl.org/dc/elements/1.1/"
   xmlns:cc="http://creativecommons.org/ns#"
   xmlns:rdf="http://www.w3.org/1999/02/22-rdf-syntax-ns#"
   xmlns:svg="http://www.w3.org/2000/svg"
   xmlns="http://www.w3.org/2000/svg"
   xmlns:sodipodi="http://sodipodi.sourceforge.net/DTD/sodipodi-0.dtd"
   xmlns:inkscape="http://www.inkscape.org/namespaces/inkscape"
   id="svg8138"
   version="1.1"
   inkscape:version="0.91 r13725"
   width="1000"
   height="1000"
   viewBox="0 0 1000 1000"
   sodipodi:docname="unravel.svg">
  <metadata
     id="metadata8144">
    <rdf:RDF>
      <cc:Work
         rdf:about="">
        <dc:format>image/svg+xml</dc:format>
        <dc:type
           rdf:resource="http://purl.org/dc/dcmitype/StillImage" />
        <dc:title />
      </cc:Work>
    </rdf:RDF>
  </metadata>
  <defs
     id="defs8142">
    <filter
       inkscape:label="Drop Shadow"
       inkscape:menu="Blurs"
       inkscape:menu-tooltip="Overlays two copies with different blur amounts and modifiable blend and composite"
       style="color-interpolation-filters:sRGB"
       id="filter8151">
      <feGaussianBlur
         stdDeviation="5"
         result="fbSourceGraphic"
         id="feGaussianBlur8153" />
      <feGaussianBlur
         stdDeviation="0.01"
         in="SourceGraphic"
         result="result1"
         id="feGaussianBlur8155" />
      <feComposite
         in2="result1"
         operator="arithmetic"
         in="fbSourceGraphic"
         k2="0.5"
         k3="0.5"
         result="result2"
         id="feComposite8157"
         k1="0"
         k4="0" />
      <feBlend
         in2="fbSourceGraphic"
         mode="normal"
         result="fbSourceGraphic"
         id="feBlend8159" />
      <feColorMatrix
         result="fbSourceGraphicAlpha"
         in="fbSourceGraphic"
         values="0 0 0 -1 0 0 0 0 -1 0 0 0 0 -1 0 0 0 0 1 0"
         id="feColorMatrix8161" />
      <feFlood
         id="feFlood8163"
         flood-opacity="0.498039"
         flood-color="rgb(214,189,138)"
         result="flood"
         in="fbSourceGraphic" />
      <feComposite
         id="feComposite8165"
         in2="fbSourceGraphic"
         in="flood"
         operator="in"
         result="composite1" />
      <feGaussianBlur
         id="feGaussianBlur8167"
         in="composite1"
         stdDeviation="17.2"
         result="blur" />
      <feOffset
         id="feOffset8169"
         dx="21.4"
         dy="19"
         result="offset" />
      <feComposite
         id="feComposite8171"
         in2="offset"
         in="fbSourceGraphic"
         operator="over"
         result="composite2" />
    </filter>
  </defs>
  <sodipodi:namedview
     pagecolor="#ffffff"
     bordercolor="#666666"
     borderopacity="1"
     objecttolerance="10"
     gridtolerance="10"
     guidetolerance="10"
     inkscape:pageopacity="0"
     inkscape:pageshadow="2"
     inkscape:window-width="1680"
     inkscape:window-height="987"
     id="namedview8140"
     showgrid="false"
     inkscape:zoom="0.32448133"
     inkscape:cx="59.485302"
     inkscape:cy="1201.9182"
     inkscape:window-x="1672"
     inkscape:window-y="-8"
     inkscape:window-maximized="1"
     inkscape:current-layer="svg8138" />
  <path
     style="fill:#ffffff;fill-opacity:1;filter:url(#filter8151)"
     d="m 1192.1696,2348.152 c 16.3428,-19.179 25.324,15.9294 0,0 z m 211.9819,-34.2413 c -82.1793,-10.3988 -164.5984,-15.9752 -243.3853,-43.7147 -89.209,-16.4461 -170.95829,-54.4155 -250.74869,-94.3476 -48.33128,-36.9438 -111.39785,-60.656 -161.39102,-99.7641 -43.41575,-35.701 -89.73307,-70.275 -126.60068,-110.7765 -10.1178,6.1004 -77.42426,-106.0239 -115.06381,-133.2127 -83.69541,-113.0513 -149.7569,-241.0778 -182.53703,-379.0581 -14.07726,-62.1493 -7.74438,-126.9486 -25.88472,-187.711 1.52923,-70.4055 5.30332,-162.5116 2.36748,-239.3493 9.27612,-52.23333 12.36981,-89.484 20.29385,-141.3589 19.87431,-53.42049 27.50521,-107.26087 55.39181,-156.40254 2.52814,-36.01248 23.63504,-66.82086 40.27479,-95.71409 29.3552,-56.90364 71.86905,-111.63784 114.03742,-163.21759 29.27839,-29.08864 72.15192,-19.846 73.09163,-57.14622 25.01074,-17.34149 59.95947,-59.87473 21.14399,-53.43466 61.36785,-74.37471 145.49147,-122.40801 229.83332,-165.82066 47.8624,-31.66954 112.42021,-49.43905 166.72916,-75.43506 93.3497,-29.013134 189.8529,-48.883714 287.4924,-59.727204 69.0097,-1.40844 167.0682,7.28874 245.069,19.60777 95.9131,12.66825 194.4171,27.394924 280.9,71.030294 64.6964,20.86208 114.3692,63.89862 172.4076,97.58666 38.4011,31.8199 86.9592,60.95032 123.7005,98.72506 46.7481,29.67678 79.1772,77.69711 121.2514,113.76914 41.9828,43.06102 89.9953,90.4106 108.3526,144.79265 30.3945,52.35211 52.1194,112.94041 85.564,165.53438 22.177,61.62757 47.7682,120.08095 56.7853,186.58234 11.9979,99.31023 11.6647,200.67103 9.6833,300.21393 -6.0729,139.2538 -44.415,276.9961 -100.7348,405.4731 -52.8821,82.2793 -77.7634,179.6344 -145.2479,252.1935 -46.436,71.6035 -123.4282,126.4969 -196.1609,170.7444 -60.5015,42.5803 -112.3424,98.832 -186.4429,117.6268 -87.1282,34.9608 -178.1573,61.0964 -266.6821,89.1712 -71.1586,16.0726 -139.9638,25.8163 -213.4897,23.1397 l 0,0 z m 21.7718,-32.972 c 44.1481,-8.5893 191.1085,4.3223 98.7422,-60.5152 -32.1904,-27.1328 -51.577,-56.4196 -6.3993,-21.3712 -19.3662,-61.3625 -60.7056,-107.6006 -126.0825,-106.1672 -54.9949,-14.0473 -41.4177,-2.3916 -97.7011,-34.4185 -36.7928,-44.807 -111.7846,-43.1264 -134.2678,-85.6923 -52.2898,15.5584 -56.3405,139.1894 -123.3352,166.2777 -40.94699,30.1453 -97.59531,39.5574 -16.2947,60.8275 80.0828,27.4008 164.385,46.474 247.0186,66.7922 51.7257,-1.2076 105.4574,20.5679 158.3198,14.267 z m 54.6949,-98.4375 c -30.2837,-16.0039 7.4395,-10.4837 0,0 z m -17.55,-10.1651 c -28.8172,-19.9045 13.9376,-5.7943 0,0 z m -17.7186,-14.7308 c -3.8502,-5.6609 5.4997,1.0691 0,0 z m -16.4743,-5.02 c -17.6815,-6.7205 -116.6064,-84.8521 -50.7566,-44.1466 -1.4624,7.1739 81.9182,51.9728 50.7566,44.1466 z m 171.8909,108.4995 c 71.9152,-14.7794 141.0124,-47.4438 213.1575,-65.1987 56.0201,-53.3397 109.0559,-129.5714 100.4056,-210.4029 -31.4037,7.1362 -60.6016,52.7541 -102.251,57.9555 -82.7788,46.8996 -184.8876,47.1252 -273.3359,17.5725 -38.3782,41.5836 -58.0078,88.4256 -6.7791,142.4275 27.5852,14.1617 31.3493,70.0585 68.8029,57.6461 z m 285.2656,-96.2598 c 83.7751,-17.9841 129.3828,-100.1286 208.0332,-128.7618 52.7528,-57.1965 191.5973,-120.2477 145.7198,-206.687 -58.2479,-67.8191 42.9135,33.8184 16.3239,-57.4309 39.3417,-106.3404 -24.9484,6.1174 -68.8849,10.1114 48.9468,17.2186 -68.4814,-7.4425 -71.7578,49.481 -30.2791,45.211 -104.4881,83.803 -86.2719,146.4151 -18.3713,81.7961 -117.8618,122.828 -153.1154,188.3538 l 3.0781,0.7119 6.875,-2.1935 0,0 z m -897.07628,-6.9609 c 73.11898,-30.2772 146.36748,-134.0652 132.43568,-200.4674 -52.9111,-36.0207 -60.7688,-5.275 -110.181,22.9316 -53.42378,24.6896 -150.87958,138.346 -91.24313,166.5488 16.04679,-74.5906 76.84968,-5.59 68.98845,10.987 z M 1112.0162,1965.978 c 5.0098,-2.219 4.8804,4.0757 0,0 z m -13.5423,-6.1344 c -1.7271,-5.5512 9.217,3.6377 0,0 z m -11.4577,-7.0299 c -1.7979,-6.7473 5.6744,6.9595 0,0 z m -5,-2.4262 c 2.9168,-4.2934 3.6005,2.3819 0,0 z m -119.68958,202.9153 c 0.53968,-50.1915 -52.48298,13.8903 0,0 z m -72.13989,-15.2253 c 0.27198,-93.7323 95.20786,-145.1683 161.16717,-195.3962 -40.5552,-40.366 -95.29404,-61.0068 -137.12168,-100.1246 -68.02463,-17.3913 -127.08233,-75.5895 -205.46893,-56.5143 -82.68984,-8.1415 -103.87264,164.4879 -38.02923,204.8964 55.00671,57.3835 123.14854,98.985 191.57613,140.045 5.52981,-5.49 23.69704,16.5566 27.87654,7.0937 z m 1012.33507,-28.5819 c 32.8072,-43.4083 113.1136,-81.7802 112.7358,-136.9944 -34.7508,47.3372 -119.2411,-4.7441 -98.1097,88.3256 0.3291,13.1533 -17.1377,41.3272 -14.6261,48.6688 z m -429.0936,-22.7436 c 39.443,-104.5189 -95.7813,0.3916 -8.287,2.0231 l 4.375,-0.4932 3.912,-1.53 0,10e-5 z m 208.9879,-12.3853 c 70.8902,-6.2255 140.6738,-31.1099 196.4751,-73.0605 35.7726,-57.9726 -72.8071,-113.7835 -73.0226,-183.8895 -28.567,-37.5046 -20.0063,-201.4557 -11.5484,-78.353 17.6508,83.3864 55.9177,167.6031 118.9534,223.9278 24.9955,-30.7036 82.548,-62.8773 97.7621,-21.5252 31.5468,-73.4003 -41.219,-144.342 -91.5634,-191.6498 -32.8188,-47.9344 -47.8113,-150.5102 -127.3731,-129.3147 -68.1167,4.5989 -176.2963,-68.3514 -217.6609,-9.5866 -70.7324,76.1375 -60.3179,177.603 -66.1654,272.5235 -36.6592,78.1916 -26.2446,187.562 78.9219,179.3551 29.8736,13.7176 62.9165,14.0011 95.2213,11.5729 z m -185.9629,-6.4722 c 5.6978,-29.6382 -18.8656,10.0792 0,0 z m -82.9047,-3.2012 c 8.9807,-10.5225 -22.7561,8.1596 0,0 z m 97.2177,-1.4182 c -3.762,-1.7652 -7.2677,9.2595 0,0 z m -142.5016,-10.7739 c -11.6387,-29.313 -20.9176,-9.587 0,0 z m 135.4637,-4.375 c -10.8459,-84.1173 -60.7529,-10.6231 0,0 z m -85.1108,-5.1683 c 45.3684,-103.5064 -127.1093,-7.3614 0,0 z m -86.1685,-5.1442 c 24.4026,-68.9509 -175.6327,-53.3343 -56.0282,-14.375 11.8332,5.62 46.9222,26.6739 56.0282,14.375 z m 127.1472,-18.9912 c 15.9376,-63.7454 -29.6283,50.565 0,0 z m -13.83,-0.896 c -5.8801,-33.1528 -5.1363,13.0972 0,0 z m -87.67,-5.9788 c 13.1517,-53.0667 -25.1609,15.2945 0,0 z m 103.1424,-20.762 c -6.7499,-77.5051 -27.7834,-164.8968 4.5276,-235.1005 55.4749,-59.1404 28.9025,-95.1532 62.368,-152.9921 -34.8472,-84.577 -106.1079,59.6834 -155.493,84.2269 -54.6299,45.5047 -94.1792,115.8393 -11.5401,151.9242 30.6733,-70.5008 87.6269,-132.4397 138.361,-173.393 -23.2859,81.2174 -142.0678,131.3722 -115.4053,216.8688 38.8328,38.2338 45.1663,75.2543 77.1818,108.4657 l 0,0 z m 515.7611,-12.1521 c 71.6984,-86.2674 -99.2049,-0.9983 0,0 z m -542.4835,-2.923 c -20.2481,-46.7655 -83.2982,-155.6649 -86.2796,-41.8337 -26.2294,50.2708 66.1275,18.4181 86.2796,41.8337 z m -126.0272,-4.5436 c 61.0888,-28.8555 -1.9224,-226.9907 -52.7108,-131.6092 -24.6337,42.4665 -160.5421,115.0188 -42.0161,122.3703 30.8673,9.4844 62.4819,12.7551 94.7269,9.2389 z m 165.8275,-7.239 c 20.857,-59.4773 26.0912,-197.7236 11.2361,-195.8559 -23.334,52.1217 -18.1612,162.6292 -11.2361,195.8559 z m 451.4497,5.287 c 32.1147,-30.2031 -25.3672,-2.0304 0,0 z m -778.171,-34.3172 c 40.8281,-47.1036 128.8641,-113.7745 118.8885,-138.2878 -51.0263,48.4624 -103.2254,99.8615 -168.2175,127.812 8.6479,3.603 44.1218,28.1399 49.329,10.4758 z m -86.829,-1.1448 c -6.9161,-3.4293 -3.828,7.8417 0,0 z m -438.45152,-12.2768 c 14.08069,-69.5077 64.07803,-147.984 -31.54846,-167.2655 -20.89568,-19.3432 -34.14062,-107.4686 -38.24951,-10.2856 10.74313,64.2844 39.40035,126.6434 63.24181,187.9261 l 4.4818,4.9375 2.07436,-15.3125 z m 429.66182,9.2413 c -7.6493,-15.3135 -13.497,5.56 0,0 z m 38.7897,-12.6788 c 70.9344,-28.1369 132.8022,-83.6455 177.7134,-141.25 -36.3772,-72.6721 -53.7512,-155.2197 -120.0439,-210.3499 -55.0971,-21.9392 -127.573,7.194 -156.39135,-71.8425 -29.54579,-51.9873 31.98995,-186.8303 -62.52813,-103.5825 -59.52309,50.5455 -157.96053,69.1672 -198.7741,125.7749 -39.05649,92.2949 68.3475,111.6521 96.2813,183.125 39.12162,84.6703 106.0574,151.7504 190.72998,188.878 21.2073,11.3145 49.2335,30.5219 73.0128,29.247 z m -496.43918,-11.8304 c -15.08122,-42.8528 -25.98638,-87.5248 -46.23054,-127.9068 -3.64376,-63.6782 21.16687,-242.5842 15.96698,-219.4148 -47.6452,33.908 -138.15223,59.6677 -139.54724,119.215 45.56939,83.9764 98.02164,165.707 168.125,230.7368 l 1.6858,-2.6302 0,0 z m 1450.84458,-6.0062 c 18.8812,-52.7189 176.4555,-121.0975 61.852,-139.036 -69.7075,-75.9461 -26.9327,116.7598 -72.2259,148.0985 l 10.3739,-9.0625 0,0 z M 1344.53,1880.6262 c 41.68,-51.3447 -106.6334,-143.008 -22.916,-45.1285 11.736,0.7356 14.3484,60.2759 22.916,45.1285 z m 688.0824,0.3125 c 33.3288,-54.1114 60.6667,-161.419 -18.0962,-185.9736 -31.5409,-20.0184 -180.6201,-111.929 -118.75,-24.3676 22.9839,87.9665 117.0467,121.9885 134.7331,211.0017 l 2.1131,-0.6605 0,0 z m 245.0904,-30.7312 c 48.5487,-71.2412 80.5174,-155.7509 118.8081,-233.1742 50.2569,-67.9272 -26.0464,-160.0504 -97.1264,-166.9376 -94.3334,6.0222 -190.0252,-20.5137 -249.3842,-100.877 -49.1618,-58.0244 -118.5655,-107.499 -140.2035,-184.53 -15.0908,-38.9375 -52.1278,-81.733 -28.4454,-18.0514 19.5261,88.6637 103.5033,139.6236 131.423,224.2168 69.8816,85.4925 199.7912,92.6891 267.8235,180.5542 36.1744,87.2339 -13.7817,176.7469 -19.2953,264.9259 -4.0696,9.3791 1.5962,41.8236 16.4002,33.8733 z M 896.24809,1823.073 c -47.07087,-47.8323 -70.3563,-114.691 -114.23187,-166.0417 -78.38148,-91.5448 -52.1884,49.8873 -106.75836,84.2199 8.27478,49.7339 147.17756,-4.2696 188.24456,66.875 8.48933,7.6128 21.26461,15.2701 32.74567,14.9468 z m 392.67301,-45.9785 c -0.1533,-13.0173 -7.8391,11.8021 0,0 z m -8.3005,-11.2755 c -13.2314,-53.5315 -57.3004,-97.3853 -13.6325,-11.1303 3.9213,4.0426 9.9977,23.278 13.6325,11.1303 z m -616.20539,-8.7669 c 4.94948,-29.7871 -35.42294,26.4668 0,0 z m 642.79759,-3.8625 c 33.0026,-55.9134 180.8558,-183.479 144.2942,-174.7572 -42.8893,35.4998 -156.4698,168.7902 -144.2942,174.7572 z m 882.5303,4.1357 c 95.8081,-23.63 86.6285,-179.0075 -5.7783,-191.9718 -84.3529,-32.4611 -167.3197,115.5087 -84.6581,164.512 26.8412,16.6805 57.2502,33.701 90.4364,27.4598 z m 34.1995,-2.7197 c 1.8505,-6.8335 -9.5527,4.0397 0,0 z m -934.9318,-3.3735 c 32.1767,-57.2725 128.7213,-219.4007 137.8486,-184.1401 -62.1625,-4.9337 -189.5666,-30.498 -212.9475,13.2217 14.8993,59.5669 43.1284,122.6309 75.0989,170.9184 z m -645.11958,-11.1553 c 96.16303,-50.2887 -54.85197,-19.3429 -68.50945,-64.9392 9.06455,30.71 29.67546,76.7757 68.50945,64.9392 z m 45.61596,-42.8703 c 75.32717,-67.2274 -48.41537,-130.926 -69.36334,-91.4737 79.22539,-8.8548 85.35272,46.6692 69.36334,91.4737 z m -30.32129,1.3703 c 32.67384,-28.2797 41.86026,-48.3147 26.33949,-45.8212 -13.70109,-43.138 -107.15756,-29.0166 -92.32887,24.2965 12.03488,22.862 43.48817,25.9502 65.98938,21.5247 z m 1390.32241,-7.0036 c 12.2958,-86.1121 7.6451,-158.7247 -98.1796,-110.6644 -105.9681,3.4839 -94.6315,37.1174 -8.0625,53.1437 35.0776,16.149 68.1705,51.9102 106.2421,57.5207 z M 570.54991,1641.4673 c -1.83607,-9.7669 -4.63922,14.2513 0,0 z m 657.71629,2.5794 c -4.499,-34.4112 -44.7334,-122.5071 -59.3209,-72.8837 23.5538,17.0179 38.0313,61.0913 59.3209,72.8837 z m -819.19648,-10.3191 c 49.38541,-35.5296 30.5172,-97.6043 24.1965,-143.2962 -3.14691,-52.3256 -99.63588,-87.4259 -86.25,-30.6996 17.95375,60.0569 33.78731,123.2062 61.35566,177.1345 l 0.69784,-3.1387 0,0 z m 162.9465,-0.472 c 21.74296,-30.834 -9.47405,-13.2701 0,0 z m 1710.66798,0.1137 c 8.9554,-54.4528 -20.6361,-12.695 0,0 z m -744.7959,-9.6179 c 49.7877,-39.9098 -9.9318,-76.4101 0,0 z m 529.7108,-6.25 c 1.0637,-50.636 145.1466,-95.4187 28.2105,-68.196 -51.0692,-24.993 -36.6828,89.3539 -28.2105,68.196 z M 609.60922,1603.9517 c 3.14429,-6.989 -18.24829,12.5969 0,0 z m -156.57669,-1.138 c 67.69773,-37.786 67.33365,-145.0182 102.8456,-212.0944 -29.28601,-31.3878 -210.01668,19.4145 -111.17493,69.9145 10.11897,43.9059 -1.84684,169.316 8.32933,142.1799 l 0,0 z m 1391.46457,2.1875 c -1.3462,-10.2859 -15.8532,3.9376 0,0 z m -1263.47662,-2.5 c 28.39557,-39.9317 -8.65724,-16.4398 0,0 z m 1190.71082,-10.7937 c 11.4528,-75.1492 30.3903,-189.7199 33.5714,-282.0188 15.8587,-63.9014 -23.8431,-103.3548 -14.9666,-116.1745 -42.3991,51.7436 -86.7047,117.0702 -128.3219,174.9245 -39.5564,60.0049 -116.0314,124.5135 -124.2993,183.5679 34.5581,-94.4793 -84.7204,23.8791 6.3894,13.3085 74.6696,-20.459 101.1366,-132.1708 164.7078,-183.7149 21.8671,-32.9883 61.1558,-155.4471 77.7157,-122.9139 -21.4611,63.1877 -40.9104,119.416 -89.1838,169.2627 -44.697,45.1515 -158.6872,176.9934 -18.1685,155.7258 30.569,5.5552 61.3278,9.4157 92.5558,8.0327 z m -253.4651,-48.195 c 0.146,-5.4083 3.8126,1.1369 0,0 z m -806.89894,47.1137 c 13.67407,-64.9535 11.47662,-116.97 -63.62497,-72.377 -66.97291,23.0123 -75.78245,74.7194 2.9859,53.9395 17.6204,12.0134 40.34224,14.6051 60.63907,18.4375 z m 1115.64894,-3.012 c 20.6754,-20.4614 -24.3716,-236.7747 -29.0876,-90.4216 -0.1988,24.4642 -19.1397,107.8831 29.0876,90.4216 z m 448.1316,-7.6801 c -24.8736,-83.0324 -29.1477,-1.4472 0,0 z M 499.59691,1579.742 c 99.65601,-28.4677 125.09243,-139.9651 217.84357,-177.5855 98.78379,-55.8739 -303.91851,21.7232 -148.8971,-14.0874 -30.72844,54.5842 -53.11317,159.9383 -68.94647,191.6729 z m 1381.37679,1.3555 c 103.432,-3.8764 211.0879,-23.1244 133.3396,-148.9088 -41.0963,-78.3708 -79.5867,-154.0901 -127.0285,-228.125 -30.1883,-40.3922 -37.7268,-124.9567 -49.7277,-26.9294 0.074,96.6351 -12.0225,193.4491 -9.2845,289.4294 20.0476,30.5252 5.4173,124.7475 52.7011,114.5338 z m 363.8125,-3.3454 c -30.1356,-73.2471 -77.0578,-27.0199 0,0 z m -1160.9184,-29.2875 c -32.949,-34.5183 -99.68454,-13.1246 0,0 z m 237.4552,-2.7308 c 52.1123,-3.9773 135.2175,9.6569 39.9915,-17.0442 -57.1789,-32.6664 -109.3226,-74.1702 -165.2331,-107.2139 -35.2753,84.7818 28.1829,161.6296 125.2416,124.2581 l 0,0 z m -149.3068,-1.3881 c 55.5368,10.1061 1.6023,-102.4001 -12.0907,-20.9955 -32.8508,21.9945 -10.6864,24.2743 12.0907,20.9955 z m 899.375,-1.6995 c 47.9038,-33.1072 236.1058,6.3097 99.9375,-54.4809 -47.6482,-6.7455 -167.8143,-49.0839 -146.3461,-65.9766 21.1966,30.4597 5.4043,116.8451 46.4086,120.4575 z m -589.5549,-1.4825 c 77.6145,-48.3407 120.8959,-129.7359 151.1185,-213.046 55.1253,-62.6642 46.9656,-116.6502 -43.7547,-101.3586 -53.9366,6.6905 -111.7734,-10.189 -157.44,-39.5461 -43.2233,18.3294 -83.1155,6.8342 -134.1189,18.7836 -90.5261,2.3092 -140.4659,163.3247 -79.5447,207.1296 72.1087,50.8545 143.2024,111.9639 233.64,125.8446 8.8679,-3.2919 22.2474,12.5071 30.0998,2.1929 z m -378.5701,-11.475 c -77.257,-34.1954 -66.7289,-168.9784 17.9107,-150.1166 -75.5258,-47.5008 -166.88315,55.5633 -101.1459,120.5037 18.4206,18.5883 60.167,24.0376 83.2352,29.6129 z m 1330.1628,-8.1711 c 48.5536,-139.3277 56.9722,-289.8074 50.1623,-436.0989 32.701,-97.63013 -84.2044,-70.8501 -138.158,-107.53763 -60.9465,-33.2164 -206.3901,-119.04343 -228.4171,-7.7191 -20.8561,70.89963 -74.9193,130.57773 -83.4219,202.02803 -43.6135,40.0713 -141.6169,-33.4022 -69.3486,48.6002 68.6852,68.6198 179.3315,104.4368 250.8179,20.2752 68.6518,-20.3924 157.6247,69.5044 128.7791,139.1726 -0.697,41.9965 57.5793,153.3192 89.5863,141.2796 z m -1300.7768,5.6532 c 52.0183,-39.9931 52.9921,-95.8045 -13.8596,-50.562 -40.7131,-13.3459 -83.422,-71.139 -43.6514,5.3565 15.2793,16.7311 32.5007,44.4379 57.511,45.2055 z M 627.85242,1511.693 c 57.42881,6.962 135.66499,-74.5673 84.7888,-92.907 -27.30848,19.8572 -98.34094,69.2503 -84.7888,92.907 z m 113.64485,-34.3669 c 84.45709,-27.4185 154.81594,-84.3342 232.77801,-125.3038 -71.09102,18.0318 -190.80872,-15.2477 -222.96827,65.9243 -4.64595,12.6876 -37.27722,62.8376 -9.80974,59.3795 z m 376.14393,-24.164 c 77.9713,-42.0774 -83.4502,-57.7015 -15.453,2.2526 l 15.453,-2.2526 0,0 z m 61.8908,-21.3178 c -63.4826,-107.3436 -9.842,54.4172 0,0 z m 1168.7342,15.2287 c 15.8079,-99.9706 -112.1771,17.09 0,0 z m -1268.2587,-10.6115 c 29.2881,-59.0449 -31.9652,-19.6739 0,0 z m 537.3607,-19.3529 c 35.0625,-69.113 -38.9457,41.383 0,0 l 0,0 z m 675.5431,10.3926 c 49.8918,-32.489 60.314,-116.2711 -0.2701,-143.4525 -35.8581,-53.6019 -146.6718,6.8111 -45.4344,4.2511 42.2851,31.2675 82.6406,92.564 30.8249,135.9098 5.2289,0.9549 9.0322,9.5241 14.8796,3.2916 z m -62.7701,-7.3132 c 97.503,-29.2733 28.5215,-150.5128 -45.894,-96.9227 -52.1911,29.4255 -12.7873,125.0413 45.894,96.9227 z m -1834.36983,-6.2473 c 106.70933,-32.6351 -11.88883,-43.1356 -40.26945,-2.4799 12.40593,3.3355 28.42602,11.6992 40.26945,2.4799 z m 1760.60103,-2.0645 c -39.3669,-54.1265 -27.8321,-87.4198 8.1001,-123.5284 -44.8211,59.6931 -190.7386,-8.4618 -170.0266,-16.1591 49.7052,47.5355 97.8827,118.25 161.9265,139.6875 z m -1815.11492,-7.9147 c 34.47232,-60.5485 121.95692,-14.4927 172.95764,-52.8721 85.21679,-55.1063 154.14916,-137.3129 209.94785,-222.0264 71.47104,-89.1218 37.91545,-203.3142 39.11398,-303.74933 15.13513,-62.83164 30.44814,-124.86773 56.74328,-186.25 -37.32295,-70.62981 -156.64108,-58.95942 -232.09415,-42.43386 -53.33554,-57.34919 -81.1816,-71.64708 -116.5986,11.80886 -53.03309,82.03144 -87.77639,174.23644 -120.96471,264.24815 -28.04598,125.33505 -41.02842,250.16368 -37.24635,378.96948 7.2258,48.1899 6.70856,115.0267 28.14106,152.3052 z m 683.25872,-34.3383 c 100.9231,-61.8683 -70.29257,-35.787 -23.0916,21.3032 7.8349,-6.9506 15.869,-13.6833 23.0916,-21.3032 z m 154.5231,23.5759 c 0.8894,-62.2796 55.59,-203.326 -26.6945,-114.6605 -18.804,45.5644 -104.3933,78.1803 -10.8974,98.6501 13.6395,2.7681 23.6677,17.0405 37.5919,16.0104 z m 639.6957,-3.6666 c 3.1847,-31.3223 -7.6864,16.2168 0,0 z m -159.997,-31.3429 c 39.4051,-68.8624 140.3149,-174.6108 99.0356,-146.4471 -34.7079,50.8656 -80.252,85.6002 -107.472,141.2474 -12.4496,30.1166 -17.8017,33.9688 8.4364,5.1997 z m -1004.9658,10.5605 c 127.24138,39.6946 124.58009,-106.2899 132.99765,-189.6339 -30.50453,-32.7196 -127.9647,96.5288 -122.47564,54.3225 -31.89036,16.4672 -58.24338,52.3276 -61.02384,78.8084 -56.27737,70.1978 1.30551,56.8945 50.50183,56.503 z m 1.36902,-119.0614 c 4.48536,-4.759 1.55233,4.928 0,0 z m -84.48479,111.8701 c 63.76994,-86.5564 -52.12358,21.893 -47.34562,4.3518 13.11743,-5.7793 39.51883,12.8835 47.34562,-4.3518 z m 246.67619,-4.9745 c 68.11342,-28.0976 214.64908,20.8024 159.53789,-100.0206 -6.01513,-49.1315 -41.05938,-158.1482 -83.73332,-153.8502 -54.36931,70.3372 -99.2329,147.395 -108.09035,236.3502 -21.48143,30.5956 26.52481,13.3068 32.28578,17.5206 z m 1171.54748,-3.209 c -10.4538,-28.9658 -3.6638,15.2849 0,0 z m -1009.36388,-4.4646 c -7.85615,-0.1033 0.42215,4.7374 0,0 z m 1001.49308,-10.1826 c -3.5679,-7.407 -1.698,4.6721 0,0 z m -906.9185,-5.2894 c 140.8686,-79.8989 -84.10201,-3.2754 0,0 z m -67.0746,-15.0209 c 64.4497,-8.5857 -59.04584,-141.1234 -16.22268,-24.9791 5.61826,4.9801 0.0202,40.0554 16.22268,24.9791 z m 813.2553,-14.6406 c -2.8171,1.1686 2.6273,4.9496 0,0 z m -751.3803,-5.7256 c 56.9466,-10.8737 78.0552,-71.4057 126.4645,-97.3695 83.4853,-68.035 33.8635,-189.8943 86.6507,-270.40521 46.3103,-38.31684 53.52,-74.88909 13.1659,-86.50164 -61.4683,-10.596 -95.473,57.6198 -147.1477,79.40496 -37.0081,52.78046 -152.46865,41.78536 -141.2859,117.51309 7.7501,75.8815 -52.44314,164.1887 9.4772,226.9275 16.1355,15.0551 20.7072,52.4879 52.6753,30.4308 z m 53.75,0.4531 c 25.4427,-14.9546 -29.36,3.9266 0,0 z m -513.61977,-4.7275 c -2.81658,1.1683 2.62685,4.9497 0,0 z m 1213.49887,-10.1415 c 5.4867,-50.0889 -12.5141,11.3239 0,0 z m -123.6291,-25.197 c 31.6945,-39.0333 95.1975,-140.4881 125.2026,-65.9905 -17.0281,-64.2244 59.6921,-122.4651 62.1509,-113.5775 -34.2507,-93.51753 62.384,-218.34451 74.5215,-209.49864 -66.4424,-19.46061 -106.8552,-115.8748 -62.8125,-162.83011 127.0561,-28.33009 -38.322,4.00738 -9.5658,68.75865 8.3519,60.56455 68.967,84.87186 123.8546,98.96721 97.1162,26.61418 166.7808,-24.9833 196.083,-116.45429 26.4256,-76.45981 104.5565,-181.41595 49.5234,-255.31321 -70.5828,-68.34883 -91.9165,136.1268 -185.9141,135.93821 50.8858,-32.94611 96.15,-76.40393 121.9203,-130.97917 47.6762,-70.4162 -49.8478,-109.56875 -87.8521,-152.64426 -58.2863,-43.9233 -116.9783,-93.65349 -178.7006,-126.68886 -24.7534,89.36914 -139.6693,104.54461 -165.2747,194.68724 -40.5286,62.96496 -37.5149,137.30482 -16.8395,206.51975 8.5304,58.91026 77.0889,69.65416 105.5788,79.46241 -81.9456,18.61218 -114.9621,-95.47374 -124.3347,-97.23216 6.3731,100.09954 -114.9306,67.83645 -165.6395,30.63814 -25.1938,-31.9488 -90.3254,-79.94096 -37.8904,-18.36343 28.4346,23.13517 -33.4868,2.65783 -43.4104,-32.68877 -36.6666,-47.65912 -65.5018,-100.59786 -102.5181,-150.21091 -35.2808,-67.36147 -72.7449,-133.79855 -102.8751,-202.89919 -84.0141,-3.13713 -91.1351,111.01103 -171.4574,110.52956 -83.8217,7.15279 -162.74264,44.89827 -245.60313,49.85612 22.21606,70.79393 -33.55529,154.76871 -0.55575,216.77541 33.66155,37.28713 91.40387,63.12149 124.60276,70.91869 63.67552,30.32118 139.79372,49.16533 204.64212,53.2569 33.6891,5.5986 47.3986,-1.08901 83.4781,16.69713 88.0133,33.77074 143.73,-27.90573 218.8934,-55.5454 48.5509,-7.15065 54.8319,-109.48414 53.3781,-18.58151 10.9122,-7.45369 -85.3211,44.90187 -18.9107,21.63544 -46.371,37.92447 -107.9464,78.94399 -161.7998,86.38981 -44.2418,-2.86825 -168.5795,-12.02255 -55.6005,16.48647 64.7605,9.08863 67.8902,91.04148 17.5764,124.90186 -69.748,50.85928 69.2482,0.70668 21.6503,86.76651 28.5371,68.4832 40.9362,142.8409 -48.6262,168.4023 53.6996,14.0563 81.4456,-47.4516 126.5078,-34.1917 70.3823,-7.8178 54.5404,53.9941 127.3022,48.6612 60.7109,11.0228 154.715,-24.1523 149.3147,57.4406 z M 1452.0353,810.57637 c 10.369,-35.71382 3.7529,4.08669 0,0 z m 431.2309,-100.8877 c 4.8052,-4.48144 3.204,4.62976 0,0 z m 93.75,-16.22471 c 40.3284,-34.23106 15.0605,6.75204 0,0 z m -25,-3.77529 c 56.0304,-32.74645 51.2114,-10.88996 0,0 z m 50.2233,-11.5625 c 20.1373,-18.91035 53.6038,-24.94389 0,0 z m 7.9861,-14.65793 c 49.0711,-31.22191 102.4124,-82.28203 150.5026,-107.87088 -41.8797,32.7134 -93.9781,71.41186 -121.5756,99.66747 -9.6351,6.89411 -15.971,-2.29438 -28.927,8.20341 z m 48.0406,-19.33079 c 2.9171,-4.2935 3.6003,2.38196 0,0 z m 8.125,-4.44878 c 4.4853,-4.75894 1.5524,4.92791 0,0 z m -77.1869,619.68753 c -6.5222,-6.7706 -5.596,5.9075 0,0 z m -785.4024,-22.9017 c 2.8844,-9.9621 -8.7873,7.5867 0,0 z m -527.60364,-10.8143 c 46.47981,-40.7873 134.5863,-62.9437 105.32755,-140.9715 -8.41622,-61.5798 -53.09362,104.2562 -99.35006,129.1874 1.93164,-1.0261 -21.90712,22.4505 -5.97749,11.7841 z m 301.04058,-35.4279 c 8.82063,-61.0983 51.64156,-272.56242 -45.20727,-130.1841 -49.34273,30.311 33.45541,108.0929 45.20727,130.1841 z m 273.57456,-0.4928 c 106.2365,-34.5049 88.1121,-121.3062 86.1711,-205.41703 -55.8558,-46.51108 -53.6037,125.23533 -78.7332,167.86623 -0.3896,5.5133 -29.0333,52.0939 -7.4379,37.5508 z m -429.22694,-8.915 c 30.42884,-46.6873 54.80115,-94.7639 -11.13274,-35.8821 -9.49315,2.557 -1.14983,59.8824 11.13274,35.8821 z m 1191.33504,-11.4483 c 50.5703,-48.5892 -22.385,-5.8315 0,0 z m -17.076,-10.3125 c 41.11,-73.5716 -117.7079,-1.8033 -7.5076,5 l 7.5076,-5 0,0 z m -588.3773,-8.75 c -1.0817,-6.6027 -2.9669,6.5587 0,0 z m 528.298,-4.2006 c -1.834,-93.5192 99.4375,-158.98183 159.8819,-222.04242 17.2011,-32.99808 -170.9029,-65.5786 -185.3592,8.11799 -14.5876,82.55303 -22.4155,197.74743 -1.8833,173.63053 -0.6045,10.9581 15.7068,46.3175 27.3606,40.2939 z m 4.1519,-20.5057 c 13.7418,-27.5356 -11.6529,11.4863 0,0 z m 102.0071,-10.5785 c 31.3534,-54.1263 111.2283,-183.30738 70.0346,-203.35994 -49.517,62.39381 -136.0757,117.46344 -159.8225,187.98504 37.9964,-37.7056 64.5071,21.6094 89.7879,15.3749 z M 828.89122,1093.2151 c 100.13855,-43.685 -45.97053,-98.81533 -35.29385,-113.91213 -6.70039,18.4685 -6.47545,169.67583 35.29385,113.91213 z m 55.0875,-47.6834 c 55.28702,-48.23723 -74.14571,-10.9555 0,0 z m -14.92639,-38.4121 c 66.35445,-2.5766 68.80499,-2.3232 -2.22907,-16.40063 -69.53325,-16.8346 -30.40552,-197.15534 -67.53891,-64.70083 5.21626,32.90563 27.00097,92.83926 69.76798,81.10146 z m 1605.46387,0.1409 c -46.102,-22.85533 -101.4,-116.5232 -58.597,-182.57183 -79.9082,34.18032 -168.9887,56.14426 -254.8432,53.04081 -16.3418,16.23794 -64.5439,13.11057 -0.1041,29.57017 86.746,-1.74821 153.2432,50.18132 229.9872,79.34092 26.8263,8.8112 53.878,27.75483 83.5571,20.61993 z M 916.32653,988.40977 c 106.16217,-42.8282 1.18506,-193.14738 -71.71445,-119.3461 -38.41463,43.73493 11.34745,145.32363 71.71445,119.3461 z m 73.02955,2.3974 c 35.23062,-46.8339 -35.78921,8.9538 0,0 z m 1486.32212,-8.4541 c 1.4067,-34.3899 -30.9895,-195.17234 -46.8449,-84.64906 -2.7799,29.2982 15.6837,82.42896 46.8449,84.64906 z m -1455.2545,-3.219 c 80.3084,-29.6064 149.5202,-84.75547 216.8842,-136.0079 -54.5332,0.56034 -123.4393,35.44177 -180.2917,1.51321 -122.0875,-55.93619 -32.0201,76.57148 -47.7008,138.79929 l 11.1083,-4.3046 0,0 z m -41.77396,-12.9286 c 65.29056,-51.38162 -80.74682,-178.98994 -29.12361,-95.71289 68.07297,30.7775 4.28989,70.56749 29.12361,95.71289 z M 776.82937,908.81696 c 17.43926,-49.79623 72.01259,-142.92924 27.50665,-166.23419 -14.68234,52.20592 -54.27295,118.70429 -27.50665,166.23419 z m 1339.43423,-9.2976 c 4.3352,-29.36536 -118.6549,-5.72652 -23.2755,-0.34989 l 17.4067,1.57566 5.8688,-1.22577 z M 808.9166,864.17887 c 54.83044,-52.33258 -23.03201,1.13018 0,0 z m 1425.1883,6.64216 c 58.4662,-23.48915 182.5043,-22.02399 192.0174,-82.5844 -46.2627,-52.86343 -62.7675,-175.58756 -112.9961,-192.10014 -27.8401,100.49967 -97.9757,182.221 -146.558,272.35749 22.44,0.15735 45.1416,7.83736 67.5367,2.32705 z m -73.1572,-12.33501 c 37.4609,-46.54465 73.6918,-136.03532 57.1601,-84.23573 28.752,-30.21293 112.0468,-209.26363 54.5639,-116.12412 22.2664,-35.00024 65.0748,-119.70262 10.7651,-109.375 -10.3236,117.03724 -72.9708,222.57317 -130.3979,320.00237 l 2.4487,-1.15511 5.4601,-9.11241 0,0 z m 66.0685,-114.97357 c 28.063,-54.95808 23.8743,-28.19797 0,0 z m 23.75,-41.25 c 0.1459,-5.40839 3.8126,1.13685 0,0 z m 2.5,-4.62653 c 2.6951,-7.08922 4.9308,-4.67419 0,0 z m 13.75,-27.17599 c 7.8668,-19.68435 3.9528,-2.28922 0,0 z m 158.2689,181.4456 c 34.3085,-45.87804 -28.8013,-1.70063 0,0 z m -1287.0189,-2.70636 c 50.3134,-4.65819 210.9096,-34.74952 81.2779,-53.91709 -111.1233,-14.6499 -224.9615,-49.95098 -312.69013,-119.34341 -87.13111,-100.66509 -105.82308,62.87955 -78.32174,124.58685 57.9084,-54.50955 108.41805,21.5365 168.48399,24.78791 49.93348,-3.96882 90.40948,32.94357 141.24998,23.88574 z m -326.74477,-4.17196 c -2.81666,1.16837 2.62689,4.94952 0,0 z m 2.5,0 c -2.81666,1.16837 2.62689,4.94952 0,0 z m 34.24479,-3.29658 c 24.87786,-23.19916 -42.10642,2.10207 0,0 z m 85.70419,-9.82947 c -38.13439,-45.14371 -128.50805,7.81767 -26.8537,-3.45585 l 15.04009,4.01895 11.81361,-0.56313 0,3e-5 z M 2205.4567,799.01088 c 15.392,-31.19366 -16.0544,21.07792 0,0 z m -959.5883,-10.57221 c 1.5461,-19.40943 -29.031,2.98473 0,0 z m -16.6647,-3.28786 c 7.7514,-14.35512 -64.8361,-4.7955 0,0 z m -40.9375,-6.76605 c -13.9,-12.86036 -43.452,-0.72649 0,0 z m -65.0331,-13.75803 c -36.2177,-32.53664 -99.5503,-44.82042 -139.96688,-57.91678 34.06058,33.90274 97.65398,46.7533 139.96688,57.91678 z m 570.656,-96.19144 c 60.0664,-59.25769 -6.69,-175.11656 41.3663,-248.7873 17.3075,-54.2923 119.5758,-123.98198 30.8834,-41.24146 -38.5216,41.68105 -47.8591,138.61825 -9.8845,39.60793 25.7002,-88.97594 150.8302,-109.28654 162.6555,-199.02818 -101.6994,-93.29444 -77.9038,59.64461 -104.8712,111.95235 6.0738,-78.64503 66.3185,-178.70929 -53.2724,-186.83968 -113.7375,-27.78708 -231.1137,-56.521924 -348.884,-51.856804 46.5763,96.033524 -122.2704,140.907284 -52.9716,242.439214 25.021,51.32134 58.7961,98.15974 75.0121,151.78795 36.2324,35.19809 61.0168,76.90509 98.0623,110.15259 31.3522,57.4257 103.8892,64.36439 161.9041,71.81339 z M 867.01622,635.93867 c -28.99942,-37.74077 -42.98452,-7.77735 0,0 z m -41.23181,-29.35309 c -27.23969,-21.34837 6.36078,26.11291 0,0 z m -14.49644,-5.47985 c -46.816,-25.46373 -112.01328,-83.66937 -115.94135,-98.77625 -29.13286,50.74666 -76.53384,84.51013 14.5611,64.00973 37.67269,1.64964 64.97916,32.7715 101.38025,34.76652 z m 17.59238,-10.14946 C 862.89512,486.50957 791.84822,421.22356 728.71902,352.5201 c -6.28115,-58.84708 -149.07515,78.57008 -68.60764,50.60693 30.02262,25.03383 44.29481,86.71387 69.08829,124.63075 29.70969,25.23866 59.33565,58.15973 99.68068,63.19849 z m 681.43295,-3.38711 c -9.8326,-3.59545 -1.9721,3.1706 0,0 z m -13.2971,-11.97938 c -34.3758,-59.82591 -10.1628,32.24351 0,0 z m -896.24998,5.34889 c 16.85904,-0.75556 -58.49941,-91.71871 -63.31953,-75.57414 -32.6465,28.09046 38.41096,80.42447 63.31953,75.57414 z m 1126.70458,-7.1875 c 7.1593,-83.23721 -17.2618,-34.41821 0,0 z M 629.73029,572.61993 c 7.92352,-18.09523 -15.82756,10.73221 0,0 z m 209.81959,-16.99376 c 12.86512,-62.08279 -13.16858,12.63074 0,0 z m 634.86872,-6.11987 c -19.1144,-40.73627 -24.2479,-4.508 0,0 z m -855.37629,-8.42105 c 45.02301,-1.48247 70.35274,-110.92774 17.33175,-95.14658 -25.39777,-23.88749 -102.56817,17.59747 -72.15932,58.6696 3.31658,27.4376 25.32814,49.14881 54.82757,36.47698 z m 225.9717,-21.49466 c 50.41462,-67.69525 -33.58794,-179.74579 -62.90149,-108.31943 46.46027,18.62693 61.69919,101.36528 62.90149,108.31943 z m 602.75749,-0.81338 c -2.8172,1.16862 2.6274,4.94942 0,0 z m 767.2175,-41.91187 c 15.1463,-38.08747 -21.3939,24.89731 0,0 z m -805.4728,-13.3325 c -26.7811,-78.0186 -108.8826,-149.75351 -66.25,-237.96171 -87.2356,-21.64099 -34.0273,72.28418 -8.75,107.57068 21.4048,39.2099 48.1997,110.02269 75,130.39103 z m -533.12498,-79.0296 c 47.30757,-6.66844 171.65698,-36.83743 50.42584,-28.91756 -38.6461,-43.6613 -131.79643,-1.79651 -50.42584,28.91756 z m 33.75,-22.0541 c -10.05887,-8.29778 14.58582,-5.25066 0,0 z m -63.66171,15.67703 c 5.40781,-71.25523 -45.23228,2.05717 -77.36485,-30.9375 -68.63864,-42.40869 -0.42498,58.15295 48.14767,30.6273 4.92653,-1.43971 34.99502,14.33639 29.21718,0.3102 z m 218.66169,-54.62672 c 77.388,8.10619 114.5722,-74.05659 139.2145,-123.18578 29.9916,-49.4536 96.2777,-84.09337 134.5385,-111.024804 -74.7209,15.888384 -155.0079,11.753504 -224.3498,44.792244 -55.6181,3.40732 -111.9164,28.72342 -164.06589,52.26128 -30.25032,26.85512 -158.34791,52.94411 -113.55287,94.10143 6.87823,27.16958 43.23107,12.29987 63.04621,25.53258 35.41742,29.91882 112.97615,13.41975 165.16935,17.52305 z M 800.76622,312.78693 c -12.82992,-2.95556 -6.53074,14.91439 0,0 z m 429.81198,-74.34358 c 87.9077,-13.75405 20.2815,-98.75012 0,0 z m 82.1437,-19.48381 c 91.7197,-14.27666 10.0216,-54.74615 -18.8307,-56.42305 -24.9815,9.4856 -15.6735,76.63321 18.8307,56.42305 z m 83.3834,-38.01783 c 72.3431,-97.730164 -49.5992,36.86952 0,0 z m -38.1586,-8.56463 c 70.4731,-23.83426 -26.5108,-61.93786 -33.4305,-19.39879 -3.0715,14.54992 21.5657,29.63307 33.4305,19.39879 z m 38.3552,-62.1527 c 6.1364,-18.665754 -16.5505,6.55307 0,0 z M 572.93568,212.69146 c -1.12007,-10.91204 6.89696,1.00531 0,0 z m 18.76804,-31.47869 c 2.45981,-10.42819 -1.3704,-2.21324 0,0 z"
     id="path8148"
     inkscape:connector-curvature="0"
     transform="matrix(0.4325742,0,0,0.4325742,-114.47115,-8.9245454)" />
</svg>
