<?xml version="1.0" encoding="iso-8859-1"?>
<!-- Generator: Adobe Illustrator 19.0.0, SVG Export Plug-In . SVG Version: 6.00 Build 0)  -->
<svg version="1.1" id="Layer_1" xmlns="http://www.w3.org/2000/svg" xmlns:xlink="http://www.w3.org/1999/xlink" x="0px" y="0px"
	 viewBox="0 0 512.001 512.001" style="enable-background:new 0 0 512.001 512.001;" xml:space="preserve">
<g>
	<g>
		<path d="M462.202,51.355c-2.746-2.748-6.47-4.294-10.356-4.294h-73.132l-6.324-35.026C371.133,5.068,365.068,0,357.989,0H154.014
			c-7.079,0-13.144,5.068-14.403,12.035l-6.324,35.026H60.155c-3.886,0-7.61,1.545-10.356,4.294
			c-2.744,2.748-4.285,6.476-4.279,10.362l0.129,90.876c0.012,8.074,6.561,14.615,14.635,14.615h12.277l8.821,93.431
			c0.006,0.126,0.025,0.252,0.032,0.378c0.029,0.498,0.072,0.995,0.126,1.491c0.023,0.208,0.044,0.416,0.07,0.623
			c0.015,0.114,0.023,0.228,0.04,0.342l9.841,104.223c0.007,0.07,0.022,0.138,0.031,0.209c0.006,0.056,0.003,0.111,0.01,0.167
			l12.724,105.542c2.113,21.187,21.085,38.387,42.392,38.387h218.707c21.309,0,40.281-17.202,42.392-38.391l12.76-105.927
			c0.007-0.054,0.004-0.11,0.01-0.164c0.007-0.07,0.023-0.139,0.031-0.209l9.615-101.842c0.016-0.116,0.013-0.233,0.026-0.348
			c0.057-0.471,0.114-0.943,0.139-1.412l9.11-96.497h12.278c8.074,0,14.623-6.54,14.635-14.615l0.129-90.876
			C466.487,57.831,464.948,54.103,462.202,51.355z M378.667,470.276c-0.015,0.124-0.029,0.249-0.04,0.375
			c-0.607,6.435-6.81,12.078-13.273,12.078H146.648c-6.463,0-12.665-5.643-13.273-12.078c-0.012-0.126-0.025-0.25-0.039-0.376
			l-11.776-97.678h63.534c0.121,0.152,0.247,0.307,0.379,0.465c17.543,20.937,43.251,32.945,70.53,32.945
			c27.57,0,53.356-12.165,70.918-33.411h63.515L378.667,470.276z M393.414,343.328h-68.405c-12.453,0-18.173,7.438-20.053,9.88
			l-0.13,0.17c-11.988,14.846-29.783,23.359-48.823,23.359c-1.158,0-2.309-0.032-3.458-0.095c-1.305-0.072-2.602-0.195-3.893-0.345
			c-8.704-1.023-17.024-3.849-24.48-8.25c-6.017-3.55-11.474-8.112-16.102-13.592l-0.199-0.284c-1.045-1.509-3.289-4.751-7.208-7.3
			c-3.048-1.982-7.111-3.545-12.411-3.545h-69.661l-5.538-58.648h73.842v-0.001c1.235,0,2.394-0.1,3.512-0.249
			c0.859-0.116,1.692-0.259,2.482-0.446c0.067-0.016,0.14-0.026,0.208-0.042c1.105-0.274,2.132-0.622,3.107-1.008
			c0.127-0.05,0.263-0.094,0.388-0.145c0.31-0.129,0.599-0.274,0.896-0.411c0.221-0.102,0.454-0.199,0.667-0.307
			c0.345-0.174,0.669-0.359,0.995-0.543c0.146-0.082,0.303-0.159,0.446-0.243c0.211-0.124,0.402-0.255,0.604-0.382
			c0.241-0.151,0.49-0.3,0.72-0.455c0.044-0.029,0.082-0.061,0.126-0.091c0.373-0.256,0.736-0.514,1.079-0.776
			c0.007-0.006,0.015-0.012,0.022-0.018c2.664-2.034,4.395-4.153,5.311-5.275l0.187-0.228c8.537-10.324,19.951-17.488,32.59-20.763
			c1.551-0.402,3.119-0.752,4.704-1.035c2.487-0.443,5.008-0.754,7.561-0.894c1.162-0.064,2.33-0.097,3.502-0.097
			c17.971,0,35.111,7.739,47.019,21.224c0.19,0.218,0.388,0.479,0.606,0.754c2.708,3.42,9.05,11.433,20.363,11.433h74.96
			L393.414,343.328z M401.712,255.407h-74.875c-0.092-0.117-0.181-0.228-0.262-0.331c-0.575-0.726-1.111-1.39-1.607-1.951
			c-16.377-18.547-39.495-29.677-64.041-30.997c-1.636-0.088-3.28-0.132-4.926-0.132c-5.157,0-10.258,0.427-15.256,1.263
			c-18.325,3.065-35.277,11.607-48.699,24.612c-0.692,0.672-1.354,1.382-2.028,2.077c-0.512,0.528-1.042,1.038-1.543,1.579
			c-1.161,1.256-2.29,2.547-3.387,3.872l-74.438,0.006h-0.363l-8.326-88.201h308.077L401.712,255.407z M437.104,137.937h-10.981
			H85.881H74.9l-0.025-17.786h229.313c8.083,0,14.635-6.552,14.635-14.635c0-8.083-6.552-14.635-14.635-14.635H74.833l-0.021-14.547
			h70.704v-0.002c7.079,0,13.144-5.068,14.403-12.034l6.324-35.026H345.76l6.324,35.026c1.257,6.966,7.322,12.034,14.403,12.034
			h70.706L437.104,137.937z"/>
	</g>
</g>
<g>
	<g>
		<path d="M362.443,102.651c-0.19-0.937-0.468-1.844-0.834-2.737c-0.366-0.878-0.82-1.727-1.346-2.517
			c-0.542-0.805-1.142-1.551-1.815-2.225c-0.688-0.688-1.434-1.288-2.225-1.829c-0.805-0.527-1.654-0.981-2.532-1.346
			c-0.878-0.366-1.8-0.644-2.737-0.834c-1.888-0.38-3.834-0.38-5.722,0c-0.937,0.19-1.859,0.468-2.737,0.834
			c-0.878,0.366-1.727,0.82-2.532,1.346c-0.79,0.542-1.537,1.142-2.225,1.829c-0.673,0.673-1.273,1.42-1.815,2.225
			c-0.527,0.79-0.981,1.639-1.346,2.517c-0.366,0.893-0.644,1.8-0.834,2.737c-0.19,0.951-0.278,1.903-0.278,2.869
			c0,0.951,0.088,1.917,0.278,2.854c0.19,0.937,0.468,1.859,0.834,2.737c0.366,0.878,0.82,1.727,1.346,2.532
			c0.542,0.79,1.142,1.551,1.815,2.225c0.688,0.673,1.434,1.288,2.225,1.815c0.805,0.527,1.654,0.981,2.532,1.346
			c0.878,0.366,1.8,0.644,2.737,0.834c0.951,0.19,1.903,0.293,2.869,0.293c0.951,0,1.903-0.102,2.854-0.293
			c0.937-0.19,1.859-0.468,2.737-0.834c0.878-0.366,1.727-0.82,2.532-1.346c0.79-0.527,1.537-1.142,2.225-1.815
			c0.673-0.673,1.273-1.434,1.815-2.225c0.527-0.805,0.981-1.654,1.346-2.532c0.366-0.878,0.644-1.8,0.834-2.737
			s0.278-1.903,0.278-2.854C362.721,104.554,362.633,103.603,362.443,102.651z"/>
	</g>
</g>
<g>
</g>
<g>
</g>
<g>
</g>
<g>
</g>
<g>
</g>
<g>
</g>
<g>
</g>
<g>
</g>
<g>
</g>
<g>
</g>
<g>
</g>
<g>
</g>
<g>
</g>
<g>
</g>
<g>
</g>
</svg>
