<?xml version="1.0" encoding="iso-8859-1"?>
<!-- Generator: Adobe Illustrator 19.0.0, SVG Export Plug-In . SVG Version: 6.00 Build 0)  -->
<svg version="1.1" id="Layer_1" xmlns="http://www.w3.org/2000/svg" xmlns:xlink="http://www.w3.org/1999/xlink" x="0px" y="0px"
	 viewBox="0 0 511.999 511.999" style="enable-background:new 0 0 511.999 511.999;" xml:space="preserve">
<g>
	<g>
		<path d="M310.052,18.01C296,3.958,276.085-2.193,253.974,0.698c-20.655,2.7-40.972,13.126-57.207,29.361
			c-34.554,34.555-39.959,85.373-12.049,113.285c0.006,0.003,0.01,0.007,0.016,0.013c11.783,11.776,27.681,17.996,45.54,17.996
			c3.439,0,6.954-0.231,10.524-0.698c20.655-2.7,40.971-13.126,57.205-29.361c16.236-16.234,26.663-36.551,29.361-57.207
			C330.253,51.978,324.104,32.063,310.052,18.01z M217.849,51.137c11.613-11.612,25.814-19.028,39.989-20.88
			c6.445-0.841,12.464-0.453,17.792,1.094l-77.524,77.524C193.236,91.768,200.502,68.485,217.849,51.137z M297.805,70.224
			c-1.853,14.174-9.267,28.377-20.88,39.989c-11.613,11.613-25.814,19.029-39.989,20.881c-6.447,0.841-12.466,0.452-17.792-1.094
			l77.567-77.567C298.257,57.76,298.647,63.779,297.805,70.224z"/>
	</g>
</g>
<g>
	<g>
		<path d="M418.071,330.831c38.419-7.373,67.335-41.496,67.335-81.44v-41.448c0-8.233-6.673-14.906-14.906-14.906h-62.728h-5.301
			H87.001c-8.233,0-14.906,6.674-14.906,14.906v82.896c0,61.184,31.516,115.136,79.159,146.503H74.386H41.499
			c-8.233,0-14.906,6.673-14.906,14.906s6.674,14.906,14.906,14.906h26.49c28.275,28.574,67.036,44.844,107.402,44.844h143.993
			c40.366,0,79.126-16.27,107.402-44.844h26.491c8.233,0,14.906-6.673,14.906-14.906s-6.673-14.906-14.906-14.906h-32.887h-76.868
			C380.451,413.028,407.69,375.143,418.071,330.831z M422.678,290.839v-67.99h32.916v26.542c0,21.976-13.659,41.196-33.096,49.178
			C422.61,296.006,422.678,293.43,422.678,290.839z M377.823,467.155c-17.735,9.749-37.829,15.031-58.439,15.031H175.39
			c-20.612,0-40.706-5.283-58.441-15.031H377.823z M247.387,436.319c-80.217,0-145.479-65.262-145.479-145.479v-67.99h290.959v67.99
			c0,3.929-0.162,7.821-0.47,11.674H195.881c-8.233,0-14.906,6.673-14.906,14.906s6.673,14.906,14.906,14.906h190.947
			C368.925,392.393,313.194,436.319,247.387,436.319z"/>
	</g>
</g>
<g>
	<g>
		<path d="M165.773,314.512c-0.18-0.954-0.477-1.892-0.85-2.787c-0.373-0.909-0.835-1.774-1.371-2.579
			c-0.537-0.82-1.163-1.58-1.848-2.266c-0.686-0.686-1.446-1.312-2.266-1.848c-0.805-0.537-1.669-0.999-2.579-1.371
			c-0.894-0.373-1.833-0.671-2.787-0.85c-1.923-0.388-3.905-0.388-5.813,0c-0.954,0.179-1.893,0.477-2.802,0.85
			c-0.894,0.373-1.759,0.835-2.564,1.371c-0.82,0.537-1.58,1.163-2.266,1.848c-0.686,0.686-1.312,1.446-1.863,2.266
			c-0.537,0.805-0.984,1.669-1.356,2.579c-0.373,0.894-0.671,1.833-0.865,2.787s-0.283,1.938-0.283,2.907
			c0,0.969,0.089,1.953,0.283,2.907c0.194,0.954,0.492,1.893,0.865,2.787c0.373,0.909,0.82,1.774,1.356,2.579
			c0.552,0.82,1.178,1.58,1.863,2.266c0.686,0.686,1.446,1.312,2.266,1.848c0.805,0.537,1.669,0.999,2.564,1.371
			c0.909,0.373,1.848,0.671,2.802,0.865s1.938,0.283,2.907,0.283c0.969,0,1.953-0.089,2.907-0.283
			c0.954-0.194,1.893-0.492,2.787-0.865c0.909-0.373,1.774-0.835,2.579-1.371c0.82-0.537,1.58-1.163,2.266-1.848
			s1.312-1.446,1.848-2.266c0.537-0.805,0.999-1.669,1.371-2.579c0.373-0.894,0.671-1.833,0.85-2.787
			c0.194-0.954,0.298-1.938,0.298-2.907C166.071,316.45,165.966,315.466,165.773,314.512z"/>
	</g>
</g>
<g>
</g>
<g>
</g>
<g>
</g>
<g>
</g>
<g>
</g>
<g>
</g>
<g>
</g>
<g>
</g>
<g>
</g>
<g>
</g>
<g>
</g>
<g>
</g>
<g>
</g>
<g>
</g>
<g>
</g>
</svg>
