<?xml version="1.0" encoding="iso-8859-1"?>
<!-- Generator: Adobe Illustrator 19.0.0, SVG Export Plug-In . SVG Version: 6.00 Build 0)  -->
<svg version="1.1" id="Layer_1" xmlns="http://www.w3.org/2000/svg" xmlns:xlink="http://www.w3.org/1999/xlink" x="0px" y="0px"
	 viewBox="0 0 512 512" style="enable-background:new 0 0 512 512;" xml:space="preserve">
<g>
	<g>
		<path d="M178.314,433.411c-0.19-0.933-0.466-1.853-0.831-2.731c-0.365-0.889-0.819-1.737-1.345-2.525
			c-0.539-0.805-1.138-1.55-1.81-2.221c-0.688-0.672-1.431-1.285-2.221-1.811c-0.803-0.524-1.65-0.979-2.525-1.344
			c-0.878-0.365-1.796-0.641-2.731-0.831c-1.884-0.381-3.827-0.381-5.711,0c-0.935,0.19-1.855,0.466-2.731,0.831
			c-0.876,0.365-1.723,0.819-2.525,1.344c-0.805,0.526-1.55,1.139-2.221,1.811c-0.672,0.672-1.285,1.417-1.811,2.221
			c-0.524,0.789-0.979,1.636-1.344,2.525c-0.365,0.878-0.641,1.797-0.831,2.731c-0.191,0.935-0.292,1.899-0.292,2.848
			c0,0.948,0.101,1.913,0.292,2.863c0.19,0.92,0.466,1.84,0.831,2.731c0.365,0.876,0.819,1.723,1.344,2.512
			c0.526,0.803,1.139,1.55,1.811,2.221c0.672,0.672,1.417,1.285,2.221,1.826c0.803,0.524,1.65,0.979,2.525,1.344
			c0.878,0.365,1.797,0.641,2.731,0.831c0.949,0.19,1.899,0.277,2.848,0.277c0.964,0,1.913-0.089,2.863-0.277
			c0.935-0.19,1.855-0.466,2.731-0.831c0.876-0.365,1.723-0.819,2.525-1.344c0.789-0.54,1.534-1.154,2.221-1.826
			c0.672-0.672,1.271-1.418,1.81-2.221c0.526-0.789,0.98-1.636,1.345-2.512c0.365-0.891,0.641-1.811,0.831-2.731
			c0.19-0.949,0.292-1.915,0.292-2.863C178.606,435.31,178.504,434.344,178.314,433.411z"/>
	</g>
</g>
<g>
	<g>
		<path d="M216.278,292.511h-37.679v-54.7c49.486-8.312,87.647-58.179,87.647-118.286C266.246,53.619,220.376,0,163.993,0
			C107.61,0,61.741,53.619,61.741,119.525c0,60.109,38.161,109.974,87.647,118.286v54.7h-37.679c-8.065,0-14.605,6.54-14.605,14.605
			v139.889c0,35.837,29.155,64.994,64.993,64.994h3.793c35.837,0,64.994-29.157,64.994-64.994V307.117
			C230.883,299.052,224.343,292.511,216.278,292.511z M90.952,119.525c0-49.8,32.767-90.314,73.042-90.314
			s73.042,40.514,73.042,90.314s-32.767,90.314-73.042,90.314S90.952,169.325,90.952,119.525z M201.672,447.004
			c0,19.732-16.051,35.783-35.783,35.783h-3.793c-19.73,0-35.782-16.051-35.782-35.783V321.721h23.074v65.272
			c0,8.065,6.54,14.605,14.605,14.605s14.605-6.54,14.605-14.605v-65.272h23.074V447.004z"/>
	</g>
</g>
<g>
	<g>
		<path d="M414.911,334.866h-37.679v-57.801c41.39-8.122,73.027-50.118,73.027-100.58c0-56.257-39.312-102.025-87.633-102.025
			c-48.32,0-87.632,45.768-87.632,102.025c0,50.462,31.637,92.458,73.027,100.58v57.801h-37.679c-8.065,0-14.605,6.54-14.605,14.605
			v97.534c0,35.837,29.155,64.994,64.993,64.994h3.793c35.837,0,64.994-29.157,64.994-64.994v-97.534
			C429.517,341.406,422.978,334.866,414.911,334.866z M304.205,176.486c0-40.149,26.208-72.814,58.422-72.814
			c32.214,0,58.422,32.664,58.422,72.814c0,40.15-26.208,72.814-58.422,72.814S304.205,216.635,304.205,176.486z M400.306,447.006
			c0,19.732-16.051,35.783-35.783,35.783h-3.793c-19.73,0-35.782-16.051-35.782-35.783v-82.928h23.074v22.916
			c0,8.065,6.54,14.605,14.605,14.605s14.605-6.54,14.605-14.605v-22.916h23.074V447.006z"/>
	</g>
</g>
<g>
	<g>
		<path d="M376.947,433.411c-0.19-0.933-0.466-1.853-0.831-2.731c-0.365-0.889-0.819-1.737-1.345-2.525
			c-0.524-0.805-1.138-1.55-1.81-2.221c-0.672-0.672-1.431-1.285-2.221-1.811c-0.803-0.524-1.65-0.979-2.525-1.344
			c-0.878-0.365-1.796-0.641-2.731-0.831c-1.884-0.381-3.827-0.381-5.711,0c-0.935,0.19-1.855,0.466-2.731,0.831
			c-0.876,0.365-1.723,0.819-2.525,1.344c-0.789,0.526-1.55,1.139-2.221,1.811c-0.672,0.672-1.285,1.417-1.811,2.221
			c-0.524,0.789-0.979,1.636-1.344,2.525c-0.365,0.878-0.641,1.797-0.831,2.731c-0.191,0.935-0.292,1.899-0.292,2.848
			c0,0.948,0.101,1.913,0.292,2.863c0.19,0.92,0.466,1.84,0.831,2.731c0.365,0.876,0.819,1.723,1.344,2.512
			c0.526,0.803,1.139,1.55,1.811,2.221c0.672,0.672,1.431,1.285,2.221,1.826c0.803,0.524,1.65,0.979,2.525,1.344
			c0.878,0.365,1.796,0.641,2.731,0.831c0.949,0.19,1.899,0.277,2.863,0.277c0.949,0,1.899-0.089,2.848-0.277
			c0.935-0.19,1.855-0.466,2.731-0.831c0.876-0.365,1.723-0.819,2.525-1.344c0.789-0.54,1.55-1.154,2.221-1.826
			c0.672-0.672,1.271-1.418,1.81-2.221c0.526-0.789,0.98-1.636,1.345-2.512c0.365-0.891,0.641-1.811,0.831-2.731
			c0.19-0.949,0.292-1.915,0.292-2.863C377.24,435.31,377.137,434.344,376.947,433.411z"/>
	</g>
</g>
<g>
</g>
<g>
</g>
<g>
</g>
<g>
</g>
<g>
</g>
<g>
</g>
<g>
</g>
<g>
</g>
<g>
</g>
<g>
</g>
<g>
</g>
<g>
</g>
<g>
</g>
<g>
</g>
<g>
</g>
</svg>
