<?xml version="1.0" encoding="iso-8859-1"?>
<!-- Generator: Adobe Illustrator 19.0.0, SVG Export Plug-In . SVG Version: 6.00 Build 0)  -->
<svg version="1.1" id="Layer_1" xmlns="http://www.w3.org/2000/svg" xmlns:xlink="http://www.w3.org/1999/xlink" x="0px" y="0px"
	 viewBox="0 0 512 512" style="enable-background:new 0 0 512 512;" xml:space="preserve">
<g>
	<g>
		<path d="M447.568,51.354c-2.746-2.749-6.472-4.294-10.356-4.294h-73.132l-6.324-35.025C356.498,5.068,350.433,0,343.353,0H168.647
			c-7.079,0-13.144,5.068-14.403,12.035l-6.324,35.025H74.788c-3.886,0-7.61,1.545-10.356,4.294
			c-2.744,2.749-4.285,6.476-4.279,10.362l0.129,90.876c0.012,8.074,6.561,14.615,14.635,14.615h12.275l8.244,87.226l0.587,6.29
			c0.023,0.394,0.073,0.937,0.143,1.543c0.016,0.143,0.028,0.268,0.047,0.422l9.91,105.008c0.012,0.133,0.026,0.266,0.042,0.398
			l12.724,105.525C121.005,494.801,139.974,512,161.275,512h189.439c21.31,0,40.285-17.199,42.401-38.384l12.756-105.933
			c0.016-0.127,0.029-0.255,0.041-0.382l9.665-102.415c0.053-0.423,0.083-0.748,0.097-0.941l0.072-0.765l9.055-95.975h12.282
			c8.076,0,14.624-6.541,14.635-14.615l0.129-90.876C451.853,57.831,450.313,54.104,447.568,51.354z M364.037,470.281
			c-0.016,0.124-0.029,0.247-0.041,0.372c-0.607,6.434-6.814,12.076-13.28,12.076H161.277c-6.459,0-12.658-5.642-13.265-12.076
			c-0.012-0.124-0.025-0.249-0.04-0.375l-10.305-85.489h236.664L364.037,470.281z M377.623,355.52H134.374l-8.286-87.812h35.054
			l-5.702,9.494c-1.367,2.276-2.088,4.881-2.088,7.536v40.589c-0.001,8.083,6.551,14.635,14.634,14.635h85.047
			c8.083,0,14.635-6.552,14.635-14.635v-40.589c0-2.655-0.723-5.26-2.09-7.536l-5.703-9.494h126.034L377.623,355.52z
			 M182.621,310.692v-21.896l12.54-20.879h30.697l12.539,20.879v21.896H182.621z M388.681,238.438H123.319l-6.725-71.231h79.323
			c0.457,7.672,6.804,13.759,14.591,13.759s14.135-6.085,14.591-13.759h170.3L388.681,238.438z M422.47,137.936h-10.988h-310.97
			H89.533l-0.025-17.786h200.044c8.082,0,14.635-6.552,14.635-14.635s-6.554-14.635-14.635-14.635H89.466l-0.02-14.547h70.704V76.33
			c7.079,0,13.144-5.068,14.403-12.035l6.325-35.025h150.246l6.324,35.025c1.257,6.966,7.322,12.035,14.403,12.035h70.707
			L422.47,137.936z"/>
	</g>
</g>
<g>
	<g>
		<path d="M347.805,102.652c-0.19-0.937-0.467-1.859-0.833-2.737c-0.366-0.878-0.821-1.727-1.346-2.532
			c-0.527-0.79-1.142-1.537-1.815-2.225c-0.688-0.673-1.434-1.273-2.226-1.815c-0.805-0.527-1.654-0.981-2.53-1.346
			c-0.88-0.366-1.8-0.644-2.737-0.834c-1.888-0.38-3.834-0.38-5.722,0c-0.937,0.19-1.859,0.468-2.737,0.834s-1.727,0.82-2.53,1.346
			c-0.79,0.542-1.553,1.142-2.226,1.815c-0.673,0.688-1.288,1.434-1.815,2.225c-0.525,0.805-0.981,1.654-1.346,2.532
			s-0.642,1.8-0.833,2.737c-0.19,0.951-0.293,1.903-0.293,2.869c0,0.951,0.102,1.903,0.293,2.854
			c0.19,0.937,0.467,1.859,0.833,2.737s0.821,1.742,1.346,2.532c0.527,0.79,1.142,1.551,1.815,2.225
			c0.673,0.673,1.434,1.288,2.226,1.815c0.805,0.527,1.654,0.981,2.53,1.346c0.88,0.366,1.8,0.644,2.737,0.834
			s1.903,0.293,2.854,0.293c0.95,0,1.917-0.102,2.868-0.293c0.937-0.19,1.859-0.468,2.737-0.834c0.878-0.366,1.727-0.82,2.53-1.346
			c0.79-0.527,1.538-1.142,2.226-1.815c0.673-0.673,1.288-1.434,1.815-2.225c0.525-0.79,0.981-1.654,1.346-2.532
			c0.366-0.878,0.643-1.8,0.833-2.737c0.19-0.951,0.293-1.903,0.293-2.854C348.098,104.554,347.995,103.603,347.805,102.652z"/>
	</g>
</g>
<g>
	<g>
		<path d="M220.86,199.888c-0.673-0.673-1.418-1.288-2.225-1.815c-0.79-0.527-1.639-0.981-2.532-1.346
			c-0.878-0.366-1.8-0.659-2.737-0.834c-1.888-0.381-3.834-0.381-5.722,0c-0.937,0.176-1.844,0.468-2.737,0.834
			c-0.878,0.366-1.727,0.82-2.517,1.346c-0.805,0.527-1.551,1.142-2.225,1.815c-0.688,0.673-1.288,1.42-1.829,2.225
			c-0.527,0.79-0.981,1.639-1.346,2.532c-0.366,0.878-0.644,1.8-0.834,2.737s-0.278,1.903-0.278,2.854s0.088,1.917,0.278,2.854
			s0.468,1.859,0.834,2.737c0.366,0.893,0.82,1.742,1.346,2.532c0.542,0.805,1.142,1.551,1.829,2.225
			c0.673,0.673,1.42,1.288,2.225,1.815c0.79,0.527,1.639,0.981,2.517,1.346c0.878,0.366,1.8,0.659,2.737,0.834
			c0.951,0.19,1.917,0.293,2.869,0.293c0.951,0,1.917-0.102,2.854-0.293c0.937-0.176,1.859-0.468,2.737-0.834
			c0.893-0.366,1.742-0.82,2.532-1.346c0.805-0.527,1.551-1.142,2.225-1.815s1.288-1.42,1.815-2.225
			c0.527-0.79,0.981-1.639,1.346-2.532c0.366-0.878,0.644-1.8,0.834-2.737s0.293-1.903,0.293-2.854
			C225.148,206.386,223.582,202.611,220.86,199.888z"/>
	</g>
</g>
<g>
</g>
<g>
</g>
<g>
</g>
<g>
</g>
<g>
</g>
<g>
</g>
<g>
</g>
<g>
</g>
<g>
</g>
<g>
</g>
<g>
</g>
<g>
</g>
<g>
</g>
<g>
</g>
<g>
</g>
</svg>
