<?xml version="1.0" encoding="iso-8859-1"?>
<!-- Generator: Adobe Illustrator 19.0.0, SVG Export Plug-In . SVG Version: 6.00 Build 0)  -->
<svg version="1.1" id="Layer_1" xmlns="http://www.w3.org/2000/svg" xmlns:xlink="http://www.w3.org/1999/xlink" x="0px" y="0px"
	 viewBox="0 0 512 512" style="enable-background:new 0 0 512 512;" xml:space="preserve">
<g>
	<g>
		<path d="M460.871,5.146C457.87,1.869,453.631,0,449.188,0H62.813c-4.451,0-8.697,1.875-11.697,5.162s-4.478,7.686-4.071,12.119
			l14.073,153.432c0.003,0.029,0.01,0.055,0.011,0.084c0.003,0.027,0.002,0.054,0.003,0.082l33.432,326.898
			c0.825,8.081,7.631,14.223,15.753,14.223h291.364c8.122,0,14.928-6.144,15.753-14.223l36.62-358.058
			c0.003-0.033,0.002-0.067,0.005-0.1c0.003-0.036,0.013-0.071,0.016-0.108L464.959,17.24
			C465.354,12.814,463.87,8.424,460.871,5.146z M289.254,478.218h-66.507V411.71h42.582c0.013,0,0.025,0.002,0.04,0.002
			c0.01,0,0.017-0.002,0.027-0.002h23.859V478.218z M209.406,333.444l40.242-52.949l52.949,40.243l-40.242,52.948L209.406,333.444z
			 M387.385,480.33h-66.461v-84.455c0-8.744-7.091-15.835-15.835-15.835h-7.785l40.088-52.748c5.292-6.963,3.937-16.898-3.026-22.19
			l-78.165-59.407c-3.343-2.54-7.553-3.652-11.721-3.082c-4.161,0.567-7.925,2.765-10.467,6.108l-59.405,78.165
			c-5.292,6.963-3.937,16.898,3.026,22.19l40.739,30.964H206.91c-8.744,0-15.835,7.091-15.835,15.835v84.454h-66.46L94.401,184.902
			c0.089-0.006,0.169-0.016,0.258-0.022c1.397-0.101,2.76-0.222,4.095-0.359c0.257-0.027,0.511-0.054,0.766-0.081
			c1.324-0.144,2.622-0.302,3.888-0.48c0.204-0.029,0.405-0.06,0.608-0.089c1.31-0.19,2.597-0.393,3.846-0.618
			c0.044-0.008,0.087-0.017,0.133-0.025c1.24-0.223,2.447-0.466,3.631-0.719c0.157-0.033,0.317-0.065,0.472-0.1
			c1.15-0.252,2.268-0.519,3.367-0.797c0.201-0.051,0.402-0.101,0.6-0.154c1.077-0.279,2.133-0.57,3.165-0.871
			c0.177-0.052,0.352-0.104,0.527-0.158c1.053-0.314,2.089-0.637,3.099-0.972c0.084-0.029,0.166-0.057,0.25-0.086
			c0.998-0.334,1.973-0.679,2.929-1.032c0.098-0.036,0.198-0.071,0.296-0.108c0.961-0.358,1.9-0.725,2.825-1.099
			c0.154-0.063,0.309-0.124,0.462-0.187c0.898-0.367,1.778-0.741,2.644-1.121c0.154-0.066,0.304-0.135,0.456-0.201
			c0.871-0.386,1.729-0.776,2.57-1.172c0.101-0.047,0.201-0.097,0.302-0.144c0.852-0.404,1.691-0.809,2.516-1.221
			c0.038-0.019,0.078-0.038,0.116-0.057c0.842-0.42,1.669-0.842,2.488-1.268c0.119-0.062,0.239-0.123,0.358-0.185
			c0.787-0.41,1.563-0.822,2.333-1.234c0.13-0.07,0.26-0.139,0.39-0.209c0.763-0.41,1.519-0.822,2.266-1.23
			c0.133-0.073,0.266-0.146,0.399-0.219c0.743-0.407,1.481-0.814,2.212-1.216c13.507-7.442,25.173-13.87,49.841-13.87
			s36.332,6.427,49.841,13.87c15.141,8.342,32.305,17.8,65.12,17.8c32.816,0,49.98-9.457,65.125-17.8
			c0.777-0.429,1.547-0.852,2.315-1.273c0.285-0.157,0.568-0.309,0.854-0.464c0.507-0.276,1.013-0.551,1.519-0.823
			c0.329-0.176,0.657-0.348,0.987-0.524c0.464-0.245,0.928-0.491,1.393-0.733c0.344-0.179,0.689-0.353,1.034-0.529
			c0.453-0.231,0.907-0.459,1.363-0.686c0.352-0.174,0.705-0.345,1.059-0.516c0.461-0.222,0.925-0.44,1.39-0.657
			c0.355-0.165,0.709-0.328,1.067-0.489c0.483-0.217,0.974-0.429,1.465-0.638c0.347-0.149,0.692-0.298,1.044-0.443
			c0.54-0.223,1.091-0.437,1.642-0.649c0.315-0.122,0.625-0.247,0.945-0.367c0.765-0.285,1.547-0.559,2.34-0.825
			c0.116-0.038,0.225-0.081,0.34-0.119c0.909-0.299,1.838-0.584,2.79-0.857c0.301-0.086,0.618-0.165,0.923-0.247
			c0.663-0.18,1.329-0.359,2.016-0.527c0.385-0.093,0.784-0.179,1.178-0.268c0.633-0.144,1.27-0.285,1.924-0.415
			c0.432-0.087,0.876-0.166,1.319-0.247c0.645-0.119,1.298-0.231,1.965-0.337c0.467-0.074,0.942-0.144,1.42-0.212
			c0.681-0.097,1.375-0.185,2.079-0.269c0.491-0.059,0.983-0.116,1.485-0.168c0.743-0.076,1.506-0.141,2.276-0.203
			c0.497-0.04,0.988-0.082,1.498-0.117c0.179-0.011,0.369-0.017,0.548-0.029L387.385,480.33z M423.839,121.993
			c-0.131,0.003-0.252,0.014-0.383,0.017c-1.61,0.049-3.181,0.122-4.714,0.217c-0.247,0.016-0.491,0.032-0.735,0.049
			c-1.531,0.103-3.028,0.226-4.484,0.372c-0.212,0.022-0.421,0.044-0.632,0.067c-1.468,0.154-2.904,0.328-4.302,0.523
			c-0.169,0.024-0.336,0.049-0.504,0.074c-1.422,0.206-2.812,0.428-4.163,0.671c-0.114,0.021-0.223,0.043-0.336,0.063
			c-1.393,0.257-2.755,0.529-4.078,0.825c-0.04,0.009-0.076,0.017-0.116,0.027c-1.354,0.302-2.673,0.625-3.957,0.964
			c-0.029,0.008-0.057,0.014-0.086,0.022c-1.264,0.336-2.491,0.689-3.693,1.055c-0.084,0.025-0.171,0.051-0.255,0.076
			c-1.158,0.356-2.285,0.727-3.39,1.108c-0.116,0.04-0.234,0.079-0.35,0.12c-1.075,0.375-2.127,0.763-3.156,1.159
			c-0.13,0.051-0.263,0.1-0.391,0.15c-1.01,0.394-1.998,0.797-2.969,1.207c-0.136,0.059-0.272,0.116-0.409,0.173
			c-0.958,0.41-1.899,0.827-2.822,1.249c-0.133,0.06-0.264,0.122-0.397,0.182c-0.92,0.424-1.823,0.855-2.711,1.289
			c-0.123,0.06-0.245,0.12-0.367,0.181c-0.891,0.439-1.769,0.88-2.633,1.325c-0.108,0.055-0.212,0.111-0.318,0.165
			c-0.872,0.451-1.734,0.904-2.583,1.357c-0.09,0.049-0.181,0.097-0.271,0.146c-0.865,0.464-1.721,0.926-2.567,1.39
			c-0.052,0.029-0.103,0.057-0.155,0.086c-0.874,0.478-1.739,0.955-2.597,1.427c-13.512,7.442-25.178,13.87-49.846,13.87
			c-6.166,0-11.52-0.402-16.294-1.121c-14.32-2.157-23.415-7.167-33.545-12.749c-10.887-5.997-22.814-12.568-40.846-15.791
			c-2.352-0.42-4.807-0.784-7.379-1.082c-1.715-0.198-3.479-0.367-5.298-0.505c-3.639-0.276-7.496-0.423-11.599-0.423
			c-32.815,0-49.98,9.458-65.123,17.8c-0.789,0.434-1.568,0.865-2.347,1.291c-0.225,0.124-0.45,0.244-0.675,0.366
			c-0.567,0.309-1.134,0.618-1.699,0.922c-0.288,0.155-0.578,0.307-0.866,0.461c-0.502,0.266-1.004,0.53-1.508,0.792
			c-0.315,0.163-0.632,0.325-0.947,0.485c-0.481,0.247-0.966,0.489-1.452,0.73c-0.329,0.163-0.66,0.323-0.991,0.483
			c-0.481,0.231-0.966,0.459-1.452,0.686c-0.336,0.155-0.673,0.312-1.013,0.464c-0.504,0.226-1.013,0.447-1.526,0.665
			c-0.328,0.141-0.654,0.282-0.987,0.42c-0.568,0.234-1.15,0.461-1.732,0.686c-0.285,0.111-0.565,0.225-0.855,0.333
			c-0.877,0.326-1.769,0.643-2.682,0.945c-0.01,0.003-0.019,0.006-0.03,0.01c-0.899,0.296-1.821,0.578-2.763,0.849
			c-0.31,0.089-0.633,0.169-0.948,0.255c-0.654,0.179-1.311,0.355-1.987,0.519c-0.386,0.095-0.787,0.18-1.181,0.271
			c-0.63,0.143-1.265,0.283-1.916,0.413c-0.434,0.087-0.877,0.168-1.321,0.25c-0.641,0.117-1.292,0.231-1.957,0.336
			c-0.469,0.074-0.944,0.146-1.425,0.214c-0.676,0.097-1.37,0.185-2.07,0.268c-0.492,0.059-0.985,0.117-1.49,0.169
			c-0.74,0.076-1.503,0.141-2.271,0.203c-0.497,0.04-0.988,0.084-1.498,0.119c-0.154,0.01-0.318,0.014-0.472,0.024l-4.964-54.121
			h221.245c8.744,0,15.835-7.091,15.835-15.835c0-8.744-7.091-15.835-15.835-15.835H83.459L80.167,31.67H431.88L423.839,121.993z"/>
	</g>
</g>
<g>
	<g>
		<path d="M370.643,80.309c-0.206-1.013-0.505-2.011-0.901-2.961c-0.396-0.966-0.888-1.883-1.457-2.738
			c-0.586-0.872-1.251-1.68-1.979-2.409c-3.674-3.69-9.138-5.368-14.285-4.339c-1.013,0.206-2.011,0.523-2.961,0.918
			c-0.964,0.396-1.883,0.871-2.738,1.457c-0.871,0.57-1.68,1.235-2.409,1.964s-1.393,1.536-1.962,2.409
			c-0.57,0.855-1.063,1.772-1.458,2.738c-0.396,0.952-0.711,1.948-0.901,2.961c-0.206,1.013-0.317,2.059-0.317,3.088
			c0,1.028,0.111,2.074,0.317,3.088c0.192,1.015,0.507,2.013,0.903,2.961c0.396,0.966,0.888,1.884,1.458,2.739
			c0.568,0.871,1.234,1.679,1.962,2.407c0.728,0.73,1.538,1.395,2.409,1.964c0.855,0.57,1.773,1.061,2.738,1.457
			c0.952,0.396,1.948,0.713,2.961,0.903c1.015,0.206,2.059,0.317,3.088,0.317c4.165,0,8.25-1.694,11.195-4.641
			c0.728-0.728,1.393-1.536,1.962-2.407c0.586-0.855,1.061-1.773,1.457-2.739c0.396-0.95,0.713-1.946,0.918-2.96
			c0.207-1.015,0.301-2.06,0.301-3.088C370.944,82.367,370.849,81.321,370.643,80.309z"/>
	</g>
</g>
<g>
</g>
<g>
</g>
<g>
</g>
<g>
</g>
<g>
</g>
<g>
</g>
<g>
</g>
<g>
</g>
<g>
</g>
<g>
</g>
<g>
</g>
<g>
</g>
<g>
</g>
<g>
</g>
<g>
</g>
</svg>
