<?xml version="1.0" encoding="iso-8859-1"?>
<!-- Generator: Adobe Illustrator 19.0.0, SVG Export Plug-In . SVG Version: 6.00 Build 0)  -->
<svg version="1.1" id="Layer_1" xmlns="http://www.w3.org/2000/svg" xmlns:xlink="http://www.w3.org/1999/xlink" x="0px" y="0px"
	 viewBox="0 0 512 512" style="enable-background:new 0 0 512 512;" xml:space="preserve">
<g>
	<g>
		<path d="M318.261,258.025c-0.17-0.906-0.453-1.799-0.807-2.647c-0.354-0.849-0.793-1.67-1.302-2.449
			c-0.51-0.764-1.104-1.501-1.755-2.152c-0.651-0.651-1.373-1.246-2.152-1.755c-0.764-0.51-1.586-0.948-2.449-1.302
			c-0.849-0.354-1.741-0.623-2.647-0.807c-1.826-0.368-3.695-0.368-5.521,0c-0.906,0.184-1.798,0.453-2.661,0.807
			c-0.849,0.354-1.671,0.793-2.435,1.302c-0.779,0.51-1.501,1.104-2.152,1.755c-0.651,0.651-1.246,1.387-1.755,2.152
			c-0.51,0.779-0.948,1.6-1.302,2.449c-0.354,0.849-0.637,1.741-0.807,2.647c-0.184,0.92-0.283,1.84-0.283,2.761
			c0,3.737,1.515,7.376,4.148,10.023c0.651,0.651,1.373,1.232,2.152,1.755c0.764,0.51,1.586,0.948,2.435,1.302
			c0.864,0.354,1.755,0.623,2.661,0.807c0.906,0.184,1.84,0.283,2.761,0.283c3.723,0,7.376-1.515,10.009-4.148
			c2.633-2.647,4.148-6.286,4.148-10.023C318.544,259.866,318.445,258.945,318.261,258.025z"/>
	</g>
</g>
<g>
	<g>
		<path d="M497.843,313.075H467.88V128.484c0-31.209-25.39-56.599-56.598-56.599h-75.569c3.02-6.341,4.716-13.429,4.716-20.908
			c0-26.912-21.895-48.807-48.807-48.807c-14.041,0-26.708,5.969-35.621,15.492C247.088,8.139,234.421,2.17,220.379,2.17
			c-26.912,0-48.807,21.895-48.807,48.807c0,7.479,1.696,14.567,4.716,20.908h-75.569c-31.209,0-56.598,25.39-56.598,56.599v184.591
			H14.157C6.338,313.075,0,319.413,0,327.232c0,7.819,6.338,14.157,14.157,14.157h28.244c29.29,29.821,69.571,46.814,111.529,46.814
			h87.912V434.6l-85.616,48.772c-5.581,3.18-8.321,9.717-6.678,15.925c1.644,6.209,7.262,10.533,13.685,10.533h185.532
			c6.423,0,12.04-4.323,13.685-10.533c1.645-6.208-1.096-12.745-6.678-15.925L270.157,434.6v-46.398h87.912
			c41.959,0,82.24-16.992,111.529-46.814h28.244c7.819,0,14.157-6.338,14.157-14.157C512,319.413,505.662,313.075,497.843,313.075z
			 M291.621,30.484c11.3,0,20.493,9.193,20.493,20.493s-9.193,20.493-20.493,20.493c-11.3,0-20.493-9.193-20.493-20.493
			C271.127,39.677,280.321,30.484,291.621,30.484z M220.379,30.484c11.3,0,20.493,9.193,20.493,20.493s-9.193,20.493-20.493,20.493
			c-11.3,0-20.493-9.193-20.493-20.493C199.886,39.677,209.079,30.484,220.379,30.484z M72.433,128.484
			c0-15.597,12.689-28.285,28.284-28.285h310.564c15.597,0,28.284,12.689,28.284,28.285c0,0,0,35.292,0,36.118
			c0,10.364-8.433,18.797-18.797,18.797c-10.364,0-18.796-8.432-18.796-18.797c0-0.04,0.004-0.081,0.004-0.12
			c0.004-0.621,0.05-1.267,0.122-1.922c0.02-0.181,0.031-0.361,0.057-0.544c0.279-2.026,0.112-4.063-0.46-5.98
			c-0.525-1.76-1.409-3.406-2.586-4.86c-0.105-0.129-0.197-0.268-0.307-0.394c-0.336-0.385-0.691-0.75-1.063-1.094
			c-2.602-2.405-6.028-3.76-9.608-3.76h-0.631c-4.09,0-7.98,1.77-10.669,4.85c-2.017,2.312-3.209,5.193-3.446,8.2
			c-0.079,1.002-0.051,2.017,0.088,3.031c0.122,0.893,0.184,1.765,0.184,2.594c0,10.364-8.433,18.797-18.797,18.797
			s-18.797-8.432-18.797-18.797c0-0.827,0.062-1.7,0.184-2.594c0.069-0.507,0.112-1.015,0.126-1.52
			c0.102-3.541-1.13-7.012-3.483-9.71c-2.688-3.082-6.577-4.85-10.669-4.85h-0.631c-4.09,0-7.98,1.77-10.669,4.85
			c-2.017,2.312-3.209,5.193-3.446,8.2c-0.079,1.002-0.051,2.017,0.088,3.031c0.122,0.893,0.184,1.765,0.184,2.594
			c0,10.364-8.433,18.797-18.797,18.797s-18.797-8.432-18.797-18.797c0-0.827,0.062-1.7,0.184-2.594
			c0.069-0.507,0.112-1.015,0.126-1.52c0.102-3.541-1.13-7.012-3.483-9.71c-2.688-3.082-6.577-4.85-10.669-4.85h-0.631
			c-4.09,0-7.98,1.77-10.669,4.85c-2.017,2.312-3.209,5.193-3.446,8.2c-0.079,1.002-0.051,2.017,0.088,3.031
			c0.122,0.893,0.184,1.765,0.184,2.594c0,10.364-8.433,18.797-18.797,18.797c-10.364,0-18.797-8.432-18.797-18.797
			c0-0.827,0.062-1.7,0.184-2.594c0.069-0.507,0.112-1.015,0.126-1.52c0.102-3.541-1.13-7.012-3.483-9.71
			c-2.688-3.082-6.577-4.85-10.669-4.85h-0.631c-4.09,0-7.98,1.77-10.669,4.85c-2.017,2.312-3.209,5.193-3.446,8.2
			c-0.079,1.002-0.051,2.017,0.088,3.031c0.122,0.893,0.184,1.765,0.184,2.594c0,10.364-8.433,18.797-18.797,18.797
			c-10.364,0-18.797-8.432-18.797-18.797c0-0.827,0.062-1.7,0.184-2.594c0.069-0.507,0.112-1.015,0.126-1.52
			c0.102-3.541-1.13-7.012-3.483-9.71c-2.688-3.082-6.577-4.85-10.669-4.85h-0.631c-4.09,0-7.98,1.77-10.669,4.85
			c-2.017,2.312-3.209,5.193-3.446,8.2c-0.079,1.002-0.051,2.017,0.088,3.031c0.122,0.893,0.184,1.765,0.184,2.594
			c0,10.364-8.433,18.797-18.797,18.797c-10.364,0-18.796-8.432-18.796-18.797C72.433,164.565,72.433,128.484,72.433,128.484z
			 M295.314,481.516h-78.627l39.314-22.395L295.314,481.516z M358.07,359.889H153.93c-23.546,0-46.449-6.531-66.251-18.5h336.642
			C404.519,353.359,381.616,359.889,358.07,359.889z M439.567,312.723H72.433v-37.775h189.483c7.819,0,14.157-6.338,14.157-14.157
			c0-7.819-6.338-14.157-14.157-14.157H72.433v-38.832c0.082,0.035,0.167,0.067,0.251,0.102c0.355,0.153,0.716,0.294,1.077,0.439
			c0.362,0.146,0.722,0.294,1.089,0.43c0.361,0.135,0.728,0.256,1.093,0.382c0.374,0.129,0.745,0.26,1.123,0.381
			c0.368,0.116,0.74,0.219,1.111,0.326c0.384,0.11,0.764,0.227,1.151,0.327c0.374,0.098,0.755,0.181,1.131,0.269
			c0.391,0.092,0.78,0.19,1.175,0.272c0.384,0.079,0.772,0.143,1.158,0.214c0.396,0.072,0.79,0.151,1.191,0.214
			c0.395,0.061,0.797,0.105,1.195,0.157c0.396,0.051,0.79,0.11,1.191,0.151c0.415,0.042,0.834,0.067,1.251,0.098
			c0.391,0.03,0.777,0.069,1.171,0.089c0.478,0.024,0.961,0.028,1.444,0.038c0.333,0.007,0.663,0.026,0.997,0.026
			c12.816,0,24.452-5.143,32.954-13.474c8.501,8.331,20.138,13.474,32.954,13.474s24.452-5.143,32.954-13.474
			c8.501,8.331,20.138,13.474,32.954,13.474s24.452-5.143,32.954-13.474c8.501,8.331,20.138,13.474,32.954,13.474
			c12.816,0,24.452-5.143,32.954-13.474c8.501,8.331,20.138,13.474,32.954,13.474s24.452-5.143,32.954-13.474
			c8.501,8.331,20.138,13.474,32.953,13.474c0.334,0,0.664-0.018,0.995-0.026c0.483-0.01,0.967-0.013,1.445-0.038
			c0.392-0.02,0.779-0.059,1.169-0.089c0.418-0.031,0.838-0.055,1.254-0.098c0.399-0.041,0.793-0.101,1.189-0.151
			c0.399-0.051,0.8-0.095,1.195-0.157c0.401-0.062,0.796-0.142,1.193-0.214c0.385-0.069,0.773-0.133,1.154-0.212
			c0.396-0.082,0.787-0.181,1.181-0.273c0.375-0.088,0.753-0.17,1.125-0.268c0.389-0.102,0.773-0.218,1.159-0.33
			c0.368-0.106,0.739-0.208,1.104-0.323c0.381-0.12,0.756-0.255,1.133-0.384c0.361-0.125,0.725-0.245,1.082-0.378
			c0.37-0.137,0.733-0.287,1.099-0.435c0.357-0.143,0.715-0.283,1.066-0.435c0.081-0.038,0.167-0.069,0.251-0.105V312.723z"/>
	</g>
</g>
<g>
</g>
<g>
</g>
<g>
</g>
<g>
</g>
<g>
</g>
<g>
</g>
<g>
</g>
<g>
</g>
<g>
</g>
<g>
</g>
<g>
</g>
<g>
</g>
<g>
</g>
<g>
</g>
<g>
</g>
</svg>
